<?xml version="1.0" encoding="iso-8859-1"?>
<!-- Uploaded to: SVG Repo, www.svgrepo.com, Generator: SVG Repo Mixer Tools -->
<!DOCTYPE svg PUBLIC "-//W3C//DTD SVG 1.1//EN" "http://www.w3.org/Graphics/SVG/1.1/DTD/svg11.dtd">
<svg fill="#FFFFFF" version="1.1" id="Capa_1" xmlns="http://www.w3.org/2000/svg" xmlns:xlink="http://www.w3.org/1999/xlink" 
	 width="800px" height="800px" viewBox="0 0 183.328 183.328"
	 xml:space="preserve">
<g>
	<path d="M137.323,95.571c2.695,1.809,5.811,2.406,8.92,3.6c-3.174-0.402-6.655-0.414-9.682-1.861
		c-3.263-0.935-6.076-2.72-9.067-4.321c-4.699-3.307-8.884-7.173-12.737-11.556c-1.194,0.866-2.453,1.676-3.375,2.778
		c-1.566,1.386-2.596,3.251-3.564,5.036c-0.928,1.861-1.442,3.883-1.921,5.939c-0.284,2.135-0.585,4.244-0.449,6.455
		c0.254,8.795,3.15,17.791,7.205,25.996c1.052,2.068,2.14,4.043,3.28,5.898c1.377,1.951,2.666,3.859,3.913,6.312
		c1.265,2.317,2.589,4.587,3.026,7.158c0.579,2.518,1.507,4.936,1.495,7.477c0.089,2.519,0.579,5.024,0.267,7.495
		c-0.184,2.459-0.278,4.941-0.846,7.354c-0.863,4.823-2.151,9.552-4.09,13.996c0.81-4.775,1.4-9.517,1.43-14.257
		c0.225-2.364-0.254-4.717-0.236-7.033c0.065-2.353-0.639-4.599-0.945-6.856c-0.189-2.317-1.283-4.351-1.975-6.467
		c-0.579-2.192-1.938-3.942-3.156-5.739c-1.052-1.785-2.506-3.807-4.02-5.716c-1.519-2.151-2.849-4.32-4.078-6.478
		c-4.643-8.854-8.198-18.549-8.239-29.034c-0.048-5.178,0.798-10.704,3.575-15.492c1.39-2.338,2.944-4.672,5.042-6.416
		c1.886-2.027,4.356-3.159,6.608-4.534l2.14-1.306l1.419,2.166c3.304,5.083,7.607,9.916,12.324,14.012
		C132.075,92.066,134.463,94.218,137.323,95.571z M65.558,167.026c-4.995-3.133-10.137-6.916-15.078-11.467
		c-4.569-4.504-9.98-9.93-13.967-15.723c-4.158-5.929-7.681-12.602-9.552-19.884c-1.992-7.259-2.338-14.966-1.489-22.591
		c1.956-15.203,8.021-30.334,16.553-41.919c9.002-11.399,19.405-21.01,29.823-26.221c10.5-5.334,20.173-8.062,26.977-9.563
		c6.817-1.445,10.825-1.797,10.825-1.797s-4.008-0.012-10.991,0.84c-6.909,1.037-17.049,2.482-28.209,7.61
		c-5.55,2.5-11.387,6.023-16.73,10.574c-5.272,4.368-10.943,9.416-15.578,15.566C28.787,64.868,22.312,80.277,19.915,96.7
		c-2.379,16.633,3.177,33.821,12.487,46.104c4.74,6.42,9.599,11.373,15.131,16.137c5.423,4.469,10.985,8.109,16.337,11.065
		c10.772,5.827,20.753,8.263,27.677,9.421c6.948,1.171,10.979,1.029,10.979,1.029s-4.031-0.236-10.755-2.069
		C85.005,176.649,75.695,173.009,65.558,167.026z M176.767,91.475c-1.549-6.035-5.946-10.031-8.73-14.546
		c-2.879-8.381-4.676-17.177-8.033-25.511c-1.566-4.232-3.517-8.322-5.567-12.439c-1.886-3.697-4.12-7.282-7.229-10.681
		c-0.862-3.984-1.637-8.154-2.181-12.224c-0.473-4.338-0.763-8.792,0.089-12.661L145.871,0l-2.914,0.721
		c-5.113,1.253-9.859,3.118-14.169,6.041c-4.243,2.802-7.991,7.069-8.824,12.188l0.691,0.165c1.52-4.66,5.231-8.015,9.451-10.181
		c3.216-1.664,6.756-2.761,10.303-3.564c-1.135,3.68-1.619,7.418-1.644,11.032c-0.089,4.838,0.367,9.46,1.218,14.248l0.154,0.928
		l0.898,0.979c5.095,5.601,9.421,13.687,13.411,21.335c3.896,7.826,8.553,15.533,11.467,23.874l0.054,0.168l0.094,0.127
		c3.305,4.463,6.887,8.928,6.839,14.077c0.147,2.518-0.101,5.047-0.856,7.341c-0.414,1.129-0.751,2.234-1.301,3.168
		c-0.479,0.851-1.224,1.974-1.537,2.175c-0.756,0.71-1.666,1.076-2.914,1.75c-1.111,0.645-2.258,1.052-3.393,1.478
		c-2.264,0.887-4.562,1.348-6.661,1.04c-4.285-0.318-7.778-4.918-9.635-10.024l-0.349,0.048l-0.366,0.041
		c-0.154,2.902,0.473,5.799,1.779,8.624c1.454,2.695,4.084,5.178,7.382,6.206c3.299,1.135,6.68,0.627,9.635-0.166
		c1.478-0.438,2.943-0.91,4.268-1.596c1.2-0.567,2.926-1.205,4.203-2.411c1.767-1.632,2.458-2.938,3.18-4.552
		c0.626-1.566,1.046-3.121,1.205-4.705C177.878,97.469,177.559,94.384,176.767,91.475z M103.798,13.642
		c2.943-0.047,5.29-2.45,5.261-5.405c-0.042-2.929-2.465-5.296-5.402-5.246c-2.944,0.035-5.293,2.462-5.252,5.411
		C98.442,11.331,100.863,13.687,103.798,13.642z M80.775,18.117c2.94-0.044,5.296-2.447,5.252-5.4
		c-0.042-2.935-2.456-5.296-5.399-5.254c-2.941,0.042-5.296,2.453-5.258,5.406C75.411,15.797,77.832,18.152,80.775,18.117z
		 M61.944,26.649c2.943-0.047,5.29-2.456,5.26-5.397c-0.041-2.943-2.465-5.302-5.405-5.26s-5.29,2.471-5.246,5.412
		C56.589,24.332,59.003,26.699,61.944,26.649z M44.338,37.551c2.941-0.044,5.296-2.459,5.258-5.412
		c-0.042-2.935-2.462-5.284-5.402-5.243c-2.944,0.024-5.296,2.453-5.255,5.406C38.98,35.231,41.395,37.569,44.338,37.551z
		 M30.924,52.532c2.944-0.044,5.296-2.453,5.261-5.399c-0.035-2.947-2.465-5.308-5.405-5.261c-2.94,0.05-5.29,2.459-5.246,5.405
		C25.569,50.206,27.983,52.573,30.924,52.532z M21.101,70.409c2.943-0.023,5.296-2.45,5.26-5.405
		c-0.042-2.929-2.461-5.281-5.405-5.234c-2.941,0.024-5.296,2.45-5.251,5.399C15.739,68.104,18.16,70.454,21.101,70.409z
		 M14.291,91.818c2.944-0.047,5.29-2.456,5.249-5.405c-0.03-2.941-2.456-5.302-5.399-5.257c-2.941,0.047-5.29,2.468-5.258,5.405
		C8.93,89.507,11.345,91.865,14.291,91.818z M16.301,109.55c-0.029-2.943-2.456-5.283-5.396-5.248
		c-2.943,0.035-5.29,2.459-5.249,5.408c0.03,2.938,2.45,5.284,5.4,5.261C13.99,114.917,16.345,112.481,16.301,109.55z
		 M15.346,125.551c-2.943,0.035-5.296,2.465-5.26,5.42c0.041,2.926,2.464,5.284,5.405,5.231c2.94-0.035,5.29-2.441,5.249-5.396
		C20.695,127.856,18.287,125.521,15.346,125.551z"/>
</g>
</svg>