<?xml version='1.0' encoding='utf-8'?>
<svg xmlns="http://www.w3.org/2000/svg" id="Layer_1" data-name="Layer 1" width="780.31mm" height="666.01mm" viewBox="0 0 2211.91 1887.89"><title>horse_1-outline</title><path d="M731.62,137.28c34.14,14.5,67.72,30.46,100.74,47.35,37.72,19.29,73,42.38,109.32,64,37,22,70.3,48.19,105,73.55,15.28,11.17,37.16,21.11,47.18,37.78,4.1,6.82,7.05,12.34,13.32,17.55,7.55,6.27,16,11.52,24,17.26,31.67,22.84,63.94,40.52,101.07,52.67,38.64,12.64,69.16,40.68,104.4,59.87,71.81,39.09,155.51,46.23,235.74,39.69,90.8-7.4,177.66-35.51,267.53-48.18,46.07-6.49,93-8,139.24-3,46.54,5.05,92.63,16.72,138,27.86,42.78,10.5,83.55,25.34,124.48,41.49,35.58,14,69.63,31.17,101.17,52.92s60.89,47.91,81.88,80.11a463.55,463.55,0,0,1,53.87,115.38c12.82,41.27,19,83.45,21,126.54,1,22.22,1.49,44.45,1.79,66.69q.22,16.24.36,32.49c.06,6.44-2,17.07-.25,23.27,1,3.56,12.31,2.14,7.58-1.82-2.54-2.13-5.65-2.81-8.5-.73-7.61,5.54-3.27,25.37-4.44,32.87-1.3,8.32-4.75,15.56-4.72,24.14,0,11.12.78,22.22.63,33.35-.3,22.6-3.94,44.32-12.51,65.3-8.17,20-19.55,38.59-30.71,57l11,1.43c-1.36-4.2-2.67-8.41-4-12.62-1.93-6.2-12.24-5.43-11.79,1.6a30.56,30.56,0,0,1-1.52,12.77l11.79,1.6c.45-5-2.43-10.08-5.1-14.16-2-3-6.74-4.26-9.42-1.21-6.77,7.68-14.11,14.8-21.31,22.07l10.24,4.24a418.41,418.41,0,0,1-.69-62.33c.4-6.36-8.09-7.58-11.18-3,1.09-1.61-1.13-10.78-1.9-12.9a17.85,17.85,0,0,0-4.35-6.62c-2.47-2.57-7.81-2.31-9.42,1.21l-8.47,18.54,11,1.43a179.28,179.28,0,0,0-9.65-38.53c-1.37-3.7-5.17-5.53-8.81-3.59a27.53,27.53,0,0,1-12,3.56l6,6c-2.57-29.11-6.17-57.8-12.13-86.41-5.87-28.21-6.05-57.28-6.62-86-.11-5.57-8.52-8.67-11.18-3l-5.52,11.69,11,1.43c-15.85-79.87-8.37-161.51-13.1-242.28-3.46-59.06-12.6-151.33-86.54-162.4-5.09-.76-9.41,3.85-6.78,8.81,43.13,81.14,33.11,176.38,15.45,263-9.4,46.1-20.91,91.8-28.08,138.33-3.42,22.23-6.41,44.8-5.3,67.33s6.81,44.24,14.72,65.22c15.07,40,35.38,79.11,60.62,113.62,12,16.46,33,33,36.34,53.91,1.45,9.11.67,18.51.65,27.68,0,12.75.41,25.5,1.07,38.23,1.25,24,3.47,48,5.92,71.94,2.08,20.29,3.14,38.67-.94,58.76-3.15,15.51-5,30.4-2.6,46.21,3.61,23.37,9.49,46.56,13.94,69.8,4.49,23.45,15.44,54.32-3.22,73.94-12.81,13.47-22.45,29.52-24.53,48.42-1,9.4.63,18.62,5.78,26.63,5.5,8.55,15.63,16,15.41,26.94-.17,8.55-7.08,15.74-8,24.3-.71,6.73,4.43,10.31,8.8,14.72v-8.49c-22.05,17.36-51.24,16.26-77.75,14.45q-14.28-1-28.55-1.78c-4.69-.27-9.67-.49-14.14-2.09-8.13-2.91-7.15-9.18-4.19-16.07,4.22-9.82,11.15-19,16.41-28.31,6.94-12.27,13.79-24.61,19.67-37.43a203.87,203.87,0,0,0,19-77.6c1.2-29.69-2.6-59.25-5-88.79-2.14-26.37-1.36-52.72-1.66-79.13-.25-22.17-2-44.36-8.13-65.76-7.22-25.24-20.49-48-32.37-71.28-14.11-27.61-28.91-54.4-47.92-79-21.84-28.23-45.27-55.17-67.89-82.77-4.7-5.73-11.87,1.59-9.42,7.27q9,20.75,18.43,41.27c6.94,15,16.49,30.31,20.9,46.3,8.07,29.24-5.27,62.37-11.21,91-13,62.52-22.65,125.53-26.77,189.28-2,30.79-2.83,61.9-6.34,92.56-1.31,11.45-3.4,33.2-13.27,40.85-3.13,2.43-8.17,3.12-11.79,4.61a63.17,63.17,0,0,0-12.64,7c-14.74,10.47-32.41,29.22-29.93,48.93.58,4.61,2.63,8.18,4.7,12.21,3.54,6.88,3.55,11.14,2.75,18.87-.47,4.51.2,8.77.69,13.23.76,6.83-.47,8.27-7.44,10.53-27.35,8.84-58.11,1.28-85.74-2.12-7.79-1-15.7-1.42-23.34-3.34-8.4-2.11-14.58-4.86-9.63-14,13.33-24.68,34.83-46,55.67-64.23A151,151,0,0,0,2019,1721c22.66-56.9,29.45-118.68,35.49-179.15,2.95-29.51,6.66-59.25,1.95-88.78-4.76-29.8-11.12-60.11-18.11-89.48-7.25-30.48-21.26-57.81-32.61-86.8s-19.08-59.59-25.16-90.2c-2.6-13.09-5.11-25.68-10.3-38.06-5.55-13.24-12.83-25.59-19.77-38.13-12.39-22.4-25.11-44.57-37.61-66.89-4.24-7.57-9.31-15.92-17.31-20-12.06-6.16-25.43,0-37.58-7.09-10.31-6-18.8-12.34-30.7-15-13.16-2.93-26.75-2.65-40-.88-27.87,3.71-54.17,14.52-80.49,23.88-29,10.31-58.1,20.54-87.83,28.61-61.31,16.65-123.9,17.58-186.64,24.51-32.4,3.58-64.57,3-97.05,4.57-32.83,1.59-65.57,7.23-98.46,7-8.77-.06-19.23-2.38-27.61,1.14-8.77,3.68-12.86,13-15.46,21.61-7,23.12-3.36,48.59-1.25,72.16,5.54,61.78,2,124.43,10.11,185.91,2,15.42,4.55,30.39,4.51,46-.05,16.55-1.64,33.09-1,49.64,1.17,31.54,10,62.88,17.49,93.36,7.12,28.83,15,57.66,21.34,86.67,2.86,13.17,5,26.64,4.17,40.16-.43,7-1,14.64-6.31,19.8-3.62,3.53-8.65,5.58-12.55,8.84-14,11.67-29.14,37.51-24.66,56.33,2.38,10,10.67,18.22,11.44,28.66.86,11.58-7,29.92-18.33,34.48-10.74,4.33-26.9,1.42-38.12,1.15-16.17-.39-32.45-.69-48.58-2-11.87-1-24.19-2.74-35.79,1a39,39,0,0,0-11.56,6.09c-4.36,3.3-7.07,8.34-11.35,11.53-10,7.4-30.21,5.12-42,4.9-12.73-.23-25.46-1-38.19-1.48-11.43-.39-23-.81-33.5-5.65-.6-.28-4.58-3.34-4.08-1-.13-.59.34-.41.5-1.15.42-2,2.84-4.53,3.94-6.09,18.28-26,40.76-50.36,63-73.08,14.16-14.5,25.8-28.23,33.16-47.47,8.78-23,12.38-48.69,15.84-72.92a450.88,450.88,0,0,0,3.86-89.68c-.78-13.47-1.78-27.18-4.79-40.36-3.6-15.78-8.68-30.66-10.84-46.78-4.23-31.7-4.6-63.37-6.7-95.22-2.06-31.3-5-62.77-10-93.75-4.8-29.92-13.63-59-20.94-88.32-6.29-25.27-8.8-50-12.07-75.65-2.5-19.65-6.79-41.16-21.74-55.4-9.51-9.06-20.48-16.48-29.91-25.7-10.1-9.88-16.37-21.18-24.65-32.39-17.42-23.57-23.08-57.43-26.42-86-3.54-30.3-3-61-5.92-91.39-2.74-28.19-8.76-52.14-24.42-76-16-24.4-34-47.21-48.86-72.41-29.74-50.39-49.42-104.39-72.12-158-10.36-24.5-21.73-48.71-36.34-71-12.15-18.55-27-40.68-47.05-51.43-23-12.35-48.6-2.57-71.37,5.76-26.34,9.63-50.93,23.22-77,33.38-21.88,8.51-45.25,15.69-64.32,29.83-8.18,6.06-14.21,13.22-19.62,21.78-8.3,13.13-18.5,16.87-33.8,17.13-24.65.42-56.44-13-63.49-38.53-7.18-26-14.28-50.43-2.82-76.33,12.18-27.54,33.76-50.87,52.83-73.76a807.78,807.78,0,0,0,55.35-74.17c7.58-11.57,12.86-24.41,20.26-36.08,8.52-13.44,19.75-24.85,30.24-36.72,5.67-6.41,11.46-13.12,13.83-21.54,3.11-11,1.58-22.85,4.29-34C502.55,93.24,512.59,75,508,52c-1.38-7-3-13.85-4.11-20.86a77.06,77.06,0,0,1-1.22-12c0-.89.49-3.31.09-4q1.4-3.61-4.09,0a21.39,21.39,0,0,1,2.1,2.16c.83,2.83,4.76,6.59,6.45,9.23,2.7,4.23,5.26,8.54,7.9,12.81,4.28,6.92,8.32,13.18,14.82,18.2,7.23,5.59,20.08,14.55,28,5,6.28-7.59,3.39-21,2.3-29.76-.74-6-1.69-11.93-2-17.94-.12-2.24.53-5.4,0-7.52-.17-.68.6-1.47.5-2.12-.18-1.17-2.82.73-2.86.64,1,2.61,9,8.11,11,10.58,5.7,6.73,10.85,13.94,15.94,21.14,9.09,12.86,17.55,26.21,27,38.82,10.54,14.07,26.16,20.79,42.24,26.93,26.94,10.3,53.2,22.21,79.55,33.92,7,3.11,13.11-7.23,6.06-10.36-27.3-12.14-54.51-24.47-82.42-35.13-11-4.2-23.47-8.75-31.78-17.41-3.88-4-6.95-9-10.13-13.6-9.76-14.06-19.16-28.38-29.48-42C578,11,569-4,558.29-5.77c-21.72-3.61-8.09,45.87-8.75,55.65-.07,1.09.1,4.64-1,5.37,1.1-.72-.78-.84-1.48-1-8-1.42-15-10.66-19-17C523.2,29.83,518.91,22,513.77,14.7c-3.11-4.4-7.36-11.09-13.45-11.2-14-.26-9.21,23-8,30.85,1.11,7,2.78,13.89,4.11,20.86,2.44,12.74-.19,24.31-4.31,36.37-4,11.68-7.85,23.06-8.87,35.45-1,12-1,21.1-9,30.84C465.2,169,454.95,179,446.2,190.37c-8.92,11.61-14.86,24.43-22,37.12-15.67,27.94-36.41,53.8-56.82,78.36-19.28,23.2-40.54,46.51-54.47,73.48-10.62,20.55-13.58,42.3-8.31,64.86,2.69,11.51,5.45,24.56,10.14,35.45,4.56,10.61,13.35,17.8,22.93,23.8,20.27,12.7,44.28,18.42,67.87,12.35,9.61-2.47,16.69-7.77,22.29-15.9,7.67-11.14,14-20.11,25.87-27.43,20.62-12.72,44.32-19.05,66.4-28.63,28.25-12.25,55.35-26.41,85.07-35,14.19-4.12,27.88-7.51,41.67-.25,11.25,5.92,19.8,16.26,27.53,26.08,17.36,22,31,46.42,42.71,71.88C741.54,559.83,759.54,615.4,787.93,667c14.57,26.46,31.24,51.29,48.92,75.74,7.52,10.4,14.92,21,20.61,32.52,7.48,15.15,10.05,31.07,11.82,47.72,6.25,58.91.07,123.25,27.79,177.77,5.12,10.06,12.81,20.53,19.66,29.61,8.45,11.22,19.12,20.6,29.87,29.54,9.11,7.57,18,14,23.26,24.93,5.77,12.08,7.72,26,9.18,39.13,2.76,24.84,5.73,48.53,11.8,72.88,7.65,30.7,16.92,61.07,21.57,92.42,4.87,32.79,7.91,66,9.68,99.08,1.72,32.17,2.3,64.2,7.82,96.06,2.36,13.66,7.52,26.63,10.2,40.22,3.18,16.11,3.84,33.1,4.18,49.49.66,31.23-2.3,62.08-7.78,92.8-4.61,25.81-9,52.69-25,74.32-9,12.25-21.37,22.63-31.63,33.94-12.11,13.34-24,26.9-35.45,40.82-6.37,7.75-18.46,18.92-20.6,29.3-3.73,18.08,28.61,20.66,39.88,21.42,26.77,1.8,55,4.18,81.63.15,8.95-1.36,14.54-4.58,20.42-11.19,11.26-12.65,25.25-12.45,41-11,15.06,1.34,30.19,1.79,45.3,2.24,13.82.41,28.52,2.08,42.26.25,20.32-2.71,32.62-23.46,34.42-42.71.9-9.64-2.78-17.79-7.12-26.1-7.2-13.79-4.08-24.19,3.22-37.34,3.16-5.69,6.69-11.57,11.5-16,3.94-3.65,8.83-5.92,13-9.3,8.67-7.05,10.72-17.32,11.57-28,2.18-27.48-6.82-54.84-13.61-81.1-7.89-30.56-15.45-61.42-22-92.28-3.56-16.68-6.86-33.54-7.31-50.63-.45-17.25,1.29-34.47,1.07-51.73-.42-31.93-7.9-63.44-8.77-95.49-.89-32.94-2.09-65.76-3.81-98.67-1.43-27.18-5.9-55-4.44-82.25.5-9.34,1.68-30.11,12.21-34.26,3.59-1.41,8.67-.47,12.38-.29a268,268,0,0,0,27.28-.13c32.9-1.71,65.5-6.34,98.48-7.22,32.49-.87,64.09-2.31,96.45-5.76,33.07-3.52,66.37-4.34,99.38-8.41a552.27,552.27,0,0,0,89.35-19.1c29.58-8.77,58.59-19.34,87.66-29.65,27.84-9.88,56.72-21.1,86.83-19.19,14.36.91,25.21,5.92,37.13,13.64s20.38,7,34,7.76c13.32.71,19.1,16,24.37,26.3,6,11.75,13.22,22.68,19.84,34.09,14.57,25.14,32.12,52.18,38.56,80.79,6.89,30.58,12.48,61,22.65,90.74,10,29.38,25.41,56.76,34.16,86.58,8.9,30.34,13,62,19.74,92.81,7.11,32.55,3.3,65,0,97.79-3.16,31.6-6.54,63.21-12.39,94.44-5.65,30.16-12.89,61.68-26.15,89.51a130.49,130.49,0,0,1-23,33.44c-9.51,10.08-20.78,18.22-30.44,28.14a293.21,293.21,0,0,0-24.83,29.8c-6.3,8.47-16.31,18.89-18,29.8-2.38,15.78,14.49,21.26,26.9,23.34,23.32,3.92,47.84,7.46,71.44,8.25,14.49.48,50.16,1.5,54-18.06.61-3.12.06-6.16-.3-9.26-.7-5.89-.3-10.69.35-16.59a26.46,26.46,0,0,0-1.88-14.18c-2.59-5.89-7.08-10.42-6.64-17.3.72-11.41,10.65-22.09,18.73-29.23,8.83-7.81,18.53-9.77,28.43-15.18,7.42-4.06,10.75-12.07,13.57-19.64,5.33-14.34,7-29.52,8.17-44.67,2.51-32.38,4-64.84,6.42-97.22,5-66.09,16-132.12,31.18-196.62,5.89-25.08,12.67-52,2.79-77-11.17-28.26-26.07-55.35-38.12-83.29l-9.42,7.27c20.88,25.48,42.48,50.38,62.84,76.29,19.13,24.35,34.38,50.46,48.51,78,13.29,25.87,28.37,51.3,35.43,79.75,6.12,24.65,6.15,50,6,75.21-.13,28.15,1.25,55.92,3.77,84,2.92,32.46,6,66.15-1.24,98.27-6.41,28.4-20.51,53.92-34.75,79-7.6,13.39-28.65,38-13.41,53.16,6.64,6.59,17.6,7.48,26.38,8,12.13.77,24.27,1.58,36.41,2.27,28.28,1.6,56.51-.24,79.56-18.39,2.56-2,2.07-6.39,0-8.49-1-1-6.11-7.66-5.47-4.27-.5-2.66,2.87-8.45,3.87-10.79,3.11-7.24,5.79-13.68,3.91-21.75-1.64-7-5.81-12.82-10.21-18.39-8-10.15-12.76-19.08-10-32.42a73.85,73.85,0,0,1,11.43-26.53c5-7.18,12.55-12.28,17.05-19.91,9.33-15.82,5.67-37.18,2.43-54.22q-6.58-34.6-13.7-69.12c-4.2-20.18-6.7-37.7-2.64-58.05,3.28-16.4,5.49-32.07,3.93-48.86-2.23-24-5-47.88-6.66-71.92-1.56-22.66-2-45.23-1.95-67.93,0-19.71-5.16-32.89-17.3-48.27-14-17.79-27.88-35-39.77-54.34a517.88,517.88,0,0,1-31-58.61c-9.73-21.66-18.43-44.22-22.42-67.72-4.07-24-2-48.52,1.33-72.47,6.55-47.34,18.13-93.77,27.9-140.5,19.36-92.53,31.22-193.66-15-280.54l-6.78,8.81c76.21,11.41,77,117.93,78.85,176.13,2.31,73.54-2,147.56,12.41,220.17,1,4.89,8.8,6,11,1.43l5.52-11.69-11.18-3c.57,28.9.79,58.25,6.53,86.7a772.76,772.76,0,0,1,12.21,85.68c.27,3,2.54,6.27,6,6a43.84,43.84,0,0,0,18-5.2l-8.81-3.59a179.28,179.28,0,0,1,9.65,38.53c.68,5,8.92,5.91,11,1.43l8.47-18.54-9.42,1.21c5.82,6.06,1.43,15.53,10.29,20.5,5.7,3.2,11.26,1.84,14.81-3.41l-11.18-3a418.41,418.41,0,0,0,.69,62.33c.43,5,6.35,8.17,10.24,4.24,7.2-7.28,14.54-14.39,21.31-22.07l-9.42-1.21c1.53,2.34,3.72,5.17,3.46,8.11-.63,7.09,9.68,7.63,11.79,1.6a38.48,38.48,0,0,0,1.95-16l-11.79,1.6c1.31,4.21,2.62,8.42,4,12.62a6.08,6.08,0,0,0,11,1.43c22-36.3,41.85-72.62,44.43-115.88.66-11.13.5-22.29.19-33.43a94.85,94.85,0,0,1,3-28.88c2.41-9.24,1.7-18.68,2.2-28.11.26-4.84,1.74-5.33-4-4.14-4.22.87-6.15-.73-3.56,2.09,4.75,5.18,10.25.92,11.62-4.43s.74-11.56.73-16.9c0-11.35-.2-22.7-.33-34-.52-43.77-.62-88-6.84-131.42a479.16,479.16,0,0,0-33.74-120c-15.42-36.15-34.57-72.1-60.93-101.53-52-58.07-122.42-91.41-193.81-119-42.79-16.53-86.22-28.59-130.87-38.93s-89.64-20.12-135.55-22.62c-93.3-5.09-182.08,19.38-272.67,37.46-86.65,17.29-178.52,28-265.33,5.63-41.76-10.78-77.8-30.53-113.37-54.37-15.9-10.66-32-21.06-49.64-28.66-19.27-8.3-39.53-13.1-58.39-22.61-17.2-8.67-33.39-19.21-49.09-30.33-7.77-5.5-15.58-10.95-23.3-16.5-4.48-3.22-9.22-6.77-12.24-11.5-2.49-3.9-3.94-8.2-6.93-11.83-11.34-13.76-28.12-23.11-42.54-33.17-18.13-12.65-35.25-26.75-53.09-39.81-36.34-26.6-75.64-49.27-114.16-72.54-33.86-20.46-69.36-38.06-105.14-54.86-15.93-7.48-32-14.75-48.17-21.63-7-3-13.15,7.35-6.06,10.36Z" transform="translate(-302.07 5.96)"/><path d="M1129,1466.12c-12.1-.36-13,19.21-13.77,27.28-1.71,19.12-1,38.51-.26,57.66,1.51,38.09,5,76,7.88,114,1.45,19,3.45,39.25-.71,58-1.18,5.31-2.86,10.85-6.24,15.22a14.51,14.51,0,0,1-4.8,4.28c-4,1.86-8.92.68-13.1,2.43-8,3.35-13.32,10.15-19.07,16.34-4.63,5-10,9.77-13.46,15.71-7.19,12.42-.48,29.4,8,39.6,3.55,4.28,8.86,6.71,14.18,4,4.85-2.42,8-7.5,11.11-11.75,11.19-15.43,22.3-31.07,34.39-45.8,9.69-11.83,19.87-23.68,26.84-37.38,7.56-14.85,10.07-30.5,10.56-47,.62-20.92.89-41.87-.35-62.77-1.21-20.44-3.84-40.83-8.88-60.7-4.87-19.21-11.54-37.89-17.79-56.68-3.09-9.3-6.06-18.64-8.72-28.07-2.09-7.42-13.67-4.27-11.57,3.19,10.18,36.17,25.47,71,31.4,108.26,3.11,19.51,4.19,39.32,4.39,59.06.1,10,0,20-.28,30-.21,8.66-.14,17.44-1.66,26-5.47,30.85-29.52,52.58-47.29,76.82-5.47,7.45-10.9,14.92-16.46,22.3-2.06,2.73-4,5.53-6,8.28-1.1,1.49-4,3.78-4.56,5.32-.49,1.32-.67-.32.15.16,1.36.79,0-.76,0-.55-.22-.85-1.58-2.16-2.07-3a64.88,64.88,0,0,1-3.4-6.57c-2.18-4.82-4.55-10.66-2.07-15.79,2.75-5.69,8.42-10.19,12.63-14.76,5.17-5.61,10.22-13.13,18.43-13.82,6.92-.59,12.31-2.38,17.09-7.58a41.49,41.49,0,0,0,8.24-14.53c7.05-20,4.72-43,3.43-63.73-2-32.58-5.4-65.06-7.2-97.67-1.11-20.11-2-40.27-1.62-60.41a215.43,215.43,0,0,1,1.35-22.58c0-.28.26-1.91.51-3.26s.5-2.61.83-3.9c.27-1,.57-2,.93-3s-.56,1.25,0-.05a12.69,12.69,0,0,1,.68-1.24c.58-1-.1.27-.2.23.11,0,1-.57-.42.22.57-.32-1.53.22-1.05.24C1136.69,1478.35,1136.69,1466.35,1129,1466.12Z" transform="translate(-302.07 5.96)"/></svg>